<svg xmlns="http://www.w3.org/2000/svg" viewBox="0 0 55 59.5"><title>bank</title><g id="Layer_2" data-name="Layer 2"><g id="Layer_1-2" data-name="Layer 1"><g id="bank"><path d="M46.24,49V33a3,3,0,0,0-6,0V49a3,3,0,0,0,6,0Z"/><path d="M30.5,49V33a3,3,0,0,0-6,0V49a3,3,0,0,0,6,0Z"/><path d="M14.76,49V33a3,3,0,0,0-6,0V49a3,3,0,0,0,6,0Z"/><path d="M52,53.5H3a3,3,0,0,0,0,6H52a3,3,0,0,0,0-6Z"/><path d="M53.83,16.16,28.83.39a2.46,2.46,0,0,0-2.66,0l-25,15.77A2.5,2.5,0,0,0,0,18.28V25.5A2.5,2.5,0,0,0,2.5,28h50A2.5,2.5,0,0,0,55,25.5V18.28A2.5,2.5,0,0,0,53.83,16.16ZM27.5,21.38a4,4,0,1,1,4-4A4,4,0,0,1,27.5,21.38Z"/></g></g></g></svg>