<svg xmlns="http://www.w3.org/2000/svg" viewBox="0 0 59 59"><title>help (2)</title><g id="Layer_2" data-name="Layer 2"><g id="Layer_1-2" data-name="Layer 1"><g id="help"><path d="M29.5,0A29.5,29.5,0,1,0,59,29.5,29.54,29.54,0,0,0,29.5,0Zm-.74,45.92a3,3,0,1,1,3-3A3,3,0,0,1,28.76,45.92ZM33.9,31.53a3.75,3.75,0,0,0-2.64,3.6,2.5,2.5,0,0,1-5,0,8.73,8.73,0,0,1,6.16-8.38,3.76,3.76,0,0,0,2.65-3.6,5.57,5.57,0,0,0-11.13,0,2.5,2.5,0,0,1-5,0,10.57,10.57,0,0,1,21.13,0A8.74,8.74,0,0,1,33.9,31.53Z"/></g></g></g></svg>