<svg xmlns="http://www.w3.org/2000/svg" viewBox="0 0 57.5 55.41"><title>kiosk</title><g id="Layer_2" data-name="Layer 2"><g id="Layer_1-2" data-name="Layer 1"><g id="kiosk"><path d="M55,44.41H50.55V26.88a11.39,11.39,0,0,1-10.38-1.36,11.46,11.46,0,0,1-13,0,11.47,11.47,0,0,1-13.06,0A11.39,11.39,0,0,1,3.68,26.88v20a2.5,2.5,0,0,0,2.5,2.5H10.5a8.49,8.49,0,0,0,16.24,0H45.55v2.45a2.5,2.5,0,0,0,5,0V49.41H55a2.5,2.5,0,0,0,0-5Zm-36.38,6a3.5,3.5,0,1,1,3.5-3.5A3.51,3.51,0,0,1,18.62,50.41Z"/><path d="M14.06,19.76a7.51,7.51,0,0,0,13.06,0,7.5,7.5,0,0,0,13.05,0A7.52,7.52,0,0,0,54.23,16V14.51A8.82,8.82,0,0,0,53,10.08L49.64,4.31A8.76,8.76,0,0,0,42.11,0h-30A8.76,8.76,0,0,0,4.59,4.31L1.2,10.08A8.82,8.82,0,0,0,0,14.51V16a7.52,7.52,0,0,0,14.06,3.73Z"/></g></g></g></svg>