<svg xmlns="http://www.w3.org/2000/svg" viewBox="0 0 58.5 43.21"><title>megaphone</title><g id="Layer_2" data-name="Layer 2"><g id="Layer_1-2" data-name="Layer 1"><g id="megaphone"><path d="M39.58.35A2,2,0,0,0,37.72.14L15.32,8.85H3.79A3.8,3.8,0,0,0,0,12.65v9.26a3.8,3.8,0,0,0,3.79,3.8H5.08L7.7,39.19a5,5,0,0,0,9.75-1.89L15.2,25.71h.12l22.4,8.71a2.06,2.06,0,0,0,.73.14,2,2,0,0,0,2-2V2A2,2,0,0,0,39.58.35Z"/><path d="M53,4.1A2.5,2.5,0,1,0,49.5,7.63a13.64,13.64,0,0,1,0,19.3A2.5,2.5,0,0,0,53,30.46,18.64,18.64,0,0,0,53,4.1Z"/><path d="M47.89,11.71a2.5,2.5,0,0,0-3.53,3.53,2.9,2.9,0,0,1,0,4.08,2.49,2.49,0,0,0,0,3.53,2.45,2.45,0,0,0,1.76.73,2.49,2.49,0,0,0,1.77-.73A7.89,7.89,0,0,0,47.89,11.71Z"/></g></g></g></svg>