<svg xmlns="http://www.w3.org/2000/svg" viewBox="0 0 59 59"><title>trophy</title><g id="Layer_2" data-name="Layer 2"><g id="Layer_1-2" data-name="Layer 1"><path id="trophy" d="M56.5,8.45h-10L47,2.71A2.5,2.5,0,0,0,44.5,0h-30A2.5,2.5,0,0,0,12,2.71l.48,5.74H2.5A2.5,2.5,0,0,0,0,11V16.3A18.25,18.25,0,0,0,16.89,34.47a15.83,15.83,0,0,0,5.28,4.65A18.59,18.59,0,0,1,18.6,54H14.5a2.5,2.5,0,0,0,0,5h30a2.5,2.5,0,0,0,0-5H40.42a18.58,18.58,0,0,1-3.57-14.89,15.73,15.73,0,0,0,5.26-4.64A18.25,18.25,0,0,0,59,16.3V11A2.5,2.5,0,0,0,56.5,8.45ZM14.35,29A13.27,13.27,0,0,1,5,16.3V13.45h7.9L14,26.75c0,.35.07.69.12,1s.08.45.13.68,0,.2.06.3ZM24.56,54a23.68,23.68,0,0,0,2.87-13.16A14.21,14.21,0,0,0,29.5,41a16.06,16.06,0,0,0,2.09-.16A23.7,23.7,0,0,0,34.46,54ZM54,16.3A13.27,13.27,0,0,1,44.65,29a1.55,1.55,0,0,1,0-.21,2,2,0,0,1,0-.24c.05-.24.1-.48.13-.73s.1-.68.13-1l1.11-13.3H54Z"/></g></g></svg>